<svg width="267" height="96" viewBox="0 0 267 96" fill="none" xmlns="http://www.w3.org/2000/svg">
<path d="M48.2736 43.8121L44.9624 57.5662L53.8516 95.0181C55.7619 90.8664 53.4034 71.2286 50.4437 49.4105C50.289 47.371 49.5339 45.423 48.2736 43.8121Z" fill="#2E2E2E"/>
<path d="M28.5186 1.61247C30.4493 1.13871 34.4889 1.10305 34.8404 8.74422L34.6876 8.78498C32.8524 9.38787 31.291 10.6229 30.2818 12.27C29.2725 13.9171 28.8811 15.869 29.1772 17.7778C29.4733 19.6867 30.4377 21.4283 31.8985 22.6922C33.3593 23.9561 35.2215 24.66 37.1531 24.6786L41.2946 42.1616C41.7419 41.7348 42.2241 41.3463 42.7363 41.0002L43.8773 40.2309L42.451 39.258L38.9361 24.4392C40.8546 23.9281 42.5207 22.7342 43.6214 21.0818C44.7221 19.4293 45.1818 17.4319 44.9142 15.4645C44.6465 13.4972 43.6699 11.6952 42.1678 10.3968C40.6656 9.09846 38.7412 8.39308 36.7558 8.41311C36.445 5.86605 34.983 -0.822521 28.2129 0.0740427C28.0296 0.101483 27.8617 0.19257 27.7388 0.331346C27.6158 0.470122 27.5457 0.647735 27.5405 0.833066C27.5376 0.954179 27.5627 1.07433 27.6139 1.18411C27.6652 1.29389 27.7411 1.39031 27.8359 1.46581C27.9306 1.54131 28.0416 1.59384 28.16 1.61929C28.2785 1.64473 28.4012 1.6424 28.5186 1.61247ZM43.3985 15.0304C43.6953 16.2813 43.6145 17.5921 43.1662 18.797C42.718 20.002 41.9226 21.047 40.8805 21.7998C39.8383 22.5527 38.5964 22.9796 37.3116 23.0266C36.0269 23.0736 34.757 22.7386 33.6627 22.0639C32.5683 21.3892 31.6986 20.4051 31.1636 19.2361C30.6285 18.0671 30.4521 16.7657 30.6567 15.4965C30.8613 14.2273 31.4377 13.0472 32.3129 12.1055C33.1882 11.1639 34.323 10.5029 35.5739 10.2062C36.4045 10.0086 37.2659 9.97657 38.1088 10.1121C38.9517 10.2476 39.7597 10.548 40.4864 10.9961C41.2131 11.4441 41.8444 12.0311 42.3441 12.7233C42.8438 13.4155 43.2021 14.1995 43.3985 15.0304Z" fill="#2E2E2E"/>
<path d="M36.6336 54.8306C36.8951 52.9968 37.1566 51.1493 37.4181 49.2883C37.4181 49.11 37.4538 48.9368 37.4742 48.7788L36.7966 49.6652C36.7299 49.7518 36.6325 49.8095 36.5245 49.8266C36.4165 49.8436 36.3061 49.8187 36.2159 49.7569C36.1248 49.6956 36.061 49.6013 36.0382 49.4939C36.0154 49.3864 36.0353 49.2743 36.0937 49.1813L38.5185 45.2028C38.8584 44.4938 39.2698 43.8213 39.7461 43.1957L40.1129 42.5997L39.8531 41.5095L34.7081 48.2287C34.642 48.3161 34.545 48.3748 34.437 48.3928C34.3289 48.4108 34.2181 48.3867 34.1273 48.3255C34.0363 48.2641 33.9724 48.1702 33.9487 48.0631C33.925 47.9559 33.9434 47.8438 34 47.7498L38.493 40.3939C38.5439 40.3094 38.5607 40.2087 38.5399 40.1122C38.519 40.0158 38.4622 39.931 38.3809 39.875C38.2996 39.8191 38.2 39.7963 38.1025 39.8114C38.005 39.8264 37.9169 39.8781 37.8562 39.9558L32.6348 46.8023C32.5678 46.8901 32.4699 46.949 32.361 46.9669C32.2522 46.9849 32.1405 46.9607 32.0489 46.8991C31.9598 46.8362 31.8976 46.742 31.875 46.6353C31.8523 46.5285 31.8708 46.4172 31.9267 46.3235L36.4197 38.9676C36.4678 38.884 36.483 38.7854 36.4623 38.6912C36.4416 38.5969 36.3864 38.5138 36.3076 38.4582C36.2273 38.4062 36.1304 38.3863 36.036 38.4023C35.9417 38.4183 35.8568 38.4692 35.7982 38.5448L30.5564 45.3862C30.4903 45.4735 30.3933 45.5323 30.2853 45.5503C30.1772 45.5683 30.0664 45.5442 29.9756 45.483C29.8851 45.4199 29.8221 45.3247 29.7994 45.2168C29.7766 45.1089 29.796 44.9964 29.8534 44.9022L34.3158 37.5107C34.3668 37.4262 34.3835 37.3254 34.3627 37.229C34.3419 37.1325 34.285 37.0477 34.2037 36.9918C34.1224 36.9359 34.0229 36.9131 33.9254 36.9281C33.8278 36.9431 33.7397 36.9948 33.679 37.0726L28.4372 43.9191C28.3712 44.0064 28.2742 44.0652 28.1661 44.0832C28.0581 44.1012 27.9473 44.0771 27.8565 44.0158C27.766 43.9528 27.7029 43.8576 27.6802 43.7497C27.6575 43.6418 27.6768 43.5293 27.7342 43.4351L32.2272 36.0792C32.256 36.0371 32.2762 35.9897 32.2866 35.9397C32.2971 35.8898 32.2976 35.8383 32.2881 35.7881C32.2787 35.738 32.2594 35.6902 32.2315 35.6475C32.2036 35.6048 32.1675 35.568 32.1253 35.5392C32.0832 35.5105 32.0358 35.4903 31.9859 35.4798C31.9359 35.4694 31.8844 35.4689 31.8343 35.4783C31.7841 35.4878 31.7363 35.5071 31.6936 35.535C31.6509 35.5629 31.6141 35.599 31.5854 35.6411L26.3486 42.4876C26.2834 42.5763 26.1859 42.6357 26.0771 42.6529C25.9684 42.6701 25.8572 42.6436 25.7679 42.5793C25.6767 42.518 25.613 42.4237 25.5902 42.3162C25.5674 42.2088 25.5872 42.0967 25.6456 42.0037L30.1386 34.6478C30.1967 34.5627 30.2186 34.4579 30.1995 34.3567C30.1804 34.2554 30.1219 34.1659 30.0368 34.1078C29.9516 34.0497 29.8469 34.0278 29.7457 34.0469C29.6444 34.066 29.5549 34.1246 29.4968 34.2097L24.26 41.0765C24.1948 41.1653 24.0973 41.2247 23.9885 41.2419C23.8798 41.259 23.7686 41.2326 23.6793 41.1682C23.5883 41.1069 23.5244 41.013 23.5007 40.9058C23.477 40.7987 23.4953 40.6866 23.5519 40.5926L28.05 33.2367C28.101 33.1522 28.1178 33.0515 28.0969 32.955C28.0761 32.8586 28.0192 32.7737 27.938 32.7178C27.8567 32.6619 27.7571 32.6391 27.6596 32.6541C27.5621 32.6691 27.474 32.7208 27.4133 32.7986L22.1765 39.6451C22.1096 39.7331 22.0113 39.7918 21.9021 39.8089C21.7929 39.826 21.6813 39.8001 21.5907 39.7368C21.5016 39.6739 21.4394 39.5797 21.4168 39.4729C21.3941 39.3662 21.4126 39.2549 21.4685 39.1612L25.9615 31.8053C26.0124 31.7208 26.0292 31.62 26.0083 31.5236C25.9875 31.4271 25.9307 31.3423 25.8494 31.2864C25.7681 31.2304 25.6685 31.2077 25.571 31.2227C25.4735 31.2377 25.3854 31.2894 25.3247 31.3672L20.0778 38.2136C20.0101 38.2978 19.9131 38.3533 19.8062 38.3689C19.6994 38.3846 19.5906 38.3593 19.5016 38.298C19.4127 38.2368 19.3501 38.1442 19.3266 38.0388C19.3031 37.9334 19.3203 37.823 19.3748 37.7297L23.8678 30.3789C23.9159 30.2953 23.9311 30.1967 23.9104 30.1025C23.8897 30.0083 23.8345 29.9252 23.7557 29.8695C23.6753 29.8192 23.5794 29.7997 23.4857 29.8147C23.3921 29.8297 23.307 29.8781 23.2463 29.951L17.9892 36.7822C17.9224 36.8688 17.825 36.9265 17.717 36.9436C17.6091 36.9606 17.4986 36.9357 17.4084 36.8739C17.3173 36.8126 17.2536 36.7183 17.2307 36.6108C17.2079 36.5034 17.2278 36.3913 17.2862 36.2983L21.7792 28.9424C21.8373 28.8572 21.8592 28.7525 21.8401 28.6513C21.821 28.55 21.7624 28.4605 21.6773 28.4024C21.5922 28.3443 21.4875 28.3224 21.3862 28.3415C21.285 28.3606 21.1954 28.4192 21.1373 28.5043L15.9006 35.3508C15.8338 35.4373 15.7365 35.4951 15.6285 35.5121C15.5205 35.5292 15.41 35.5042 15.3199 35.4425C15.2287 35.3812 15.165 35.2868 15.1421 35.1794C15.1193 35.072 15.1392 34.9599 15.1976 34.8668L19.6906 27.5109C19.7194 27.4688 19.7396 27.4214 19.75 27.3714C19.7605 27.3215 19.761 27.27 19.7515 27.2198C19.742 27.1697 19.7228 27.1219 19.6949 27.0792C19.6669 27.0365 19.6309 26.9997 19.5887 26.9709C19.5466 26.9422 19.4992 26.922 19.4492 26.9115C19.3993 26.9011 19.3478 26.9006 19.2976 26.91C19.2475 26.9195 19.1997 26.9388 19.157 26.9667C19.1143 26.9946 19.0775 27.0307 19.0487 27.0728L13.812 33.9448C13.7444 34.0387 13.6424 34.1019 13.5282 34.1205C13.414 34.1392 13.2971 34.1117 13.2033 34.0441C13.1094 33.9766 13.0461 33.8745 13.0275 33.7603C13.0089 33.6462 13.0364 33.5293 13.1039 33.4354L17.5969 26.0795C17.6479 25.995 17.6646 25.8942 17.6438 25.7978C17.623 25.7014 17.5661 25.6165 17.4848 25.5606C17.4035 25.5047 17.304 25.4819 17.2065 25.4969C17.109 25.5119 17.0209 25.5636 16.9602 25.6414L11.7489 32.4879C11.6805 32.5738 11.5823 32.6309 11.4738 32.6479C11.3653 32.6649 11.2544 32.6405 11.1631 32.5796C11.0729 32.5175 11.01 32.4232 10.9873 32.3161C10.9645 32.209 10.9837 32.0973 11.0408 32.0039L15.5338 24.648C15.5848 24.5635 15.6015 24.4628 15.5807 24.3663C15.5599 24.2699 15.503 24.1851 15.4217 24.1291C15.3404 24.0732 15.2409 24.0504 15.1434 24.0655C15.0458 24.0805 14.9577 24.1321 14.897 24.2099L9.62973 31.0564C9.56217 31.1496 9.46036 31.2122 9.34667 31.2304C9.23299 31.2485 9.11675 31.2208 9.02353 31.1532C8.93031 31.0857 8.86774 30.9838 8.84959 30.8702C8.83143 30.7565 8.85919 30.6402 8.92674 30.547L13.4197 23.1911C13.4647 23.105 13.4756 23.0052 13.4504 22.9114C13.4252 22.8176 13.3656 22.7367 13.2836 22.6848C13.2015 22.6329 13.1029 22.6137 13.0074 22.631C12.9118 22.6484 12.8263 22.701 12.7677 22.7785L7.54114 29.625C7.47438 29.7115 7.37701 29.7693 7.26902 29.7863C7.16103 29.8034 7.0506 29.7785 6.96041 29.7167C6.86926 29.6554 6.80553 29.561 6.78271 29.4536C6.75989 29.3462 6.77977 29.2341 6.83816 29.141L11.3312 21.7851C11.3893 21.7 11.4112 21.5953 11.3921 21.494C11.3729 21.3928 11.3144 21.3032 11.2293 21.2452C11.1442 21.1871 11.0395 21.1652 10.9382 21.1843C10.8369 21.2034 10.7474 21.2619 10.6893 21.347L5.45256 28.1884C5.38402 28.2684 5.28842 28.3203 5.18403 28.3341C5.07964 28.348 4.9738 28.3229 4.88676 28.2636C4.79973 28.2043 4.73761 28.115 4.7123 28.0128C4.68699 27.9106 4.70026 27.8026 4.74957 27.7096L9.24258 20.3537C9.28959 20.2698 9.30414 20.1716 9.28348 20.0777C9.26282 19.9837 9.20838 19.9007 9.13051 19.8443C9.06279 19.7938 8.98061 19.7666 8.89618 19.7666C8.81174 19.7666 8.72956 19.7938 8.66185 19.8443C7.20493 21.0363 -0.476993 27.7758 0.353347 32.926C1.29576 38.5804 24.9936 55.2127 35.6912 54.8306C36.005 54.8102 36.3198 54.8102 36.6336 54.8306Z" fill="#6D5AE7"/>
<path d="M65.5682 64.4535C63.4695 62.5737 58.2735 58.906 52.5579 55.6661C53.1963 60.5021 53.7499 64.9272 54.2185 68.9414C55.2679 70.3473 56.19 71.6667 56.9388 72.7925C57.7515 74.0059 59.0118 74.8479 60.4438 75.1344C61.8759 75.4208 63.3631 75.1282 64.58 74.3207C66.5463 72.9912 68.0898 70.8058 67.2238 67.2603C66.9645 66.1804 66.3879 65.2028 65.5682 64.4535ZM62.9651 70.2098C62.7697 70.4961 62.4937 70.7179 62.1722 70.8473C61.8506 70.9767 61.4979 71.0078 61.1587 70.9368C60.8194 70.8657 60.5089 70.6956 60.2663 70.448C60.0237 70.2005 59.86 69.8865 59.7958 69.5459C59.7317 69.2053 59.77 68.8533 59.906 68.5344C60.0419 68.2156 60.2693 67.9442 60.5595 67.7546C60.8497 67.565 61.1896 67.4657 61.5362 67.4693C61.8827 67.4729 62.2205 67.5793 62.5067 67.7748C62.6972 67.9042 62.8602 68.0699 62.9864 68.2625C63.1126 68.4551 63.1995 68.6707 63.2422 68.897C63.2848 69.1233 63.2822 69.3557 63.2347 69.581C63.1871 69.8063 63.0955 70.02 62.9651 70.2098Z" fill="#6D5AE7"/>
<path d="M80.0661 19.8341C79.9984 19.7836 79.9162 19.7564 79.8318 19.7564C79.7473 19.7564 79.6651 19.7836 79.5974 19.8341H79.572C79.494 19.8905 79.4399 19.9739 79.4201 20.0681C79.4003 20.1623 79.4163 20.2605 79.465 20.3435L83.9529 27.6994C84.0022 27.7924 84.0155 27.9004 83.9902 28.0026C83.9649 28.1048 83.9027 28.1941 83.8157 28.2534C83.7287 28.3127 83.6228 28.3378 83.5184 28.324C83.414 28.3101 83.3184 28.2582 83.2499 28.1782L78.0132 21.347C77.9551 21.2619 77.8655 21.2034 77.7643 21.1843C77.663 21.1652 77.5583 21.1871 77.4732 21.2452C77.3881 21.3032 77.3295 21.3928 77.3104 21.494C77.2913 21.5953 77.3132 21.7 77.3713 21.7851L81.8643 29.141C81.9227 29.2341 81.9426 29.3462 81.9198 29.4536C81.8969 29.561 81.8332 29.6554 81.7421 29.7167C81.6519 29.7785 81.5414 29.8034 81.4334 29.7863C81.3255 29.7693 81.2281 29.7115 81.1613 29.625L75.9348 22.7785C75.8767 22.6934 75.7871 22.6348 75.6859 22.6157C75.5846 22.5966 75.4799 22.6185 75.3948 22.6766C75.3097 22.7347 75.2511 22.8242 75.232 22.9255C75.2129 23.0268 75.2348 23.1315 75.2929 23.2166L79.7859 30.5725C79.843 30.6659 79.8622 30.7776 79.8394 30.8846C79.8167 30.9917 79.7538 31.086 79.6637 31.1481C79.5735 31.2099 79.463 31.2348 79.355 31.2178C79.2471 31.2007 79.1497 31.143 79.0829 31.0564L73.8309 24.2099C73.7702 24.1321 73.6821 24.0805 73.5846 24.0655C73.4871 24.0504 73.3875 24.0732 73.3062 24.1291C73.2249 24.1851 73.1681 24.2699 73.1472 24.3663C73.1264 24.4628 73.1432 24.5635 73.1941 24.648L77.6871 32.0039C77.7443 32.0973 77.7634 32.209 77.7407 32.3161C77.7179 32.4232 77.655 32.5175 77.5649 32.5796C77.4735 32.6405 77.3626 32.6649 77.2541 32.6479C77.1456 32.6309 77.0474 32.5738 76.9791 32.4879L71.7423 25.6414C71.6816 25.5636 71.5935 25.5119 71.496 25.4969C71.3985 25.4819 71.2989 25.5047 71.2176 25.5606C71.1364 25.6165 71.0795 25.7014 71.0587 25.7978C71.0378 25.8942 71.0546 25.995 71.1055 26.0795L75.5986 33.4354C75.6535 33.5263 75.6727 33.6345 75.6523 33.7388C75.6319 33.8431 75.5734 33.936 75.4882 33.9996C75.4031 34.0632 75.2973 34.0927 75.1915 34.0826C75.0857 34.0725 74.9875 34.0233 74.9159 33.9448L69.6537 27.0728C69.5956 26.9877 69.5061 26.9292 69.4048 26.91C69.3036 26.8909 69.1989 26.9128 69.1137 26.9709C69.0286 27.029 68.9701 27.1186 68.951 27.2198C68.9319 27.3211 68.9538 27.4258 69.0119 27.5109L73.5049 34.8668C73.5633 34.9598 73.5831 35.072 73.5603 35.1794C73.5375 35.2868 73.4738 35.3812 73.3826 35.4425C73.2924 35.5042 73.182 35.5292 73.074 35.5121C72.966 35.4951 72.8687 35.4373 72.8019 35.3508L67.5651 28.5043C67.507 28.4192 67.4175 28.3606 67.3162 28.3415C67.215 28.3224 67.1103 28.3443 67.0252 28.4024C66.94 28.4605 66.8815 28.55 66.8624 28.6513C66.8433 28.7525 66.8652 28.8572 66.9233 28.9424L71.4163 36.2983C71.4747 36.3913 71.4946 36.5034 71.4717 36.6108C71.4489 36.7183 71.3852 36.8126 71.294 36.8739C71.2038 36.9357 71.0934 36.9606 70.9854 36.9436C70.8774 36.9265 70.7801 36.8688 70.7133 36.7822L65.4765 29.9357C65.4158 29.8628 65.3308 29.8144 65.2371 29.7994C65.1435 29.7844 65.0476 29.8039 64.9671 29.8542C64.8883 29.9099 64.8332 29.993 64.8124 30.0872C64.7917 30.1814 64.8069 30.28 64.8551 30.3636L69.3124 37.7297C69.3669 37.823 69.3841 37.9334 69.3606 38.0388C69.337 38.1442 69.2745 38.2368 69.1856 38.298C69.0966 38.3593 68.9878 38.3846 68.8809 38.3689C68.7741 38.3533 68.6771 38.2978 68.6094 38.2136L63.3829 31.3672C63.3222 31.2894 63.2341 31.2377 63.1366 31.2227C63.039 31.2077 62.9395 31.2304 62.8582 31.2864C62.7769 31.3423 62.7201 31.4271 62.6992 31.5236C62.6784 31.62 62.6952 31.7208 62.7461 31.8053L67.2391 39.1612C67.295 39.2549 67.3135 39.3662 67.2908 39.4729C67.2681 39.5797 67.206 39.6739 67.1169 39.7368C67.0263 39.8001 66.9147 39.826 66.8055 39.8089C66.6963 39.7918 66.5979 39.7331 66.531 39.6451L61.2943 32.7986C61.2336 32.7208 61.1455 32.6691 61.048 32.6541C60.9505 32.6391 60.8509 32.6619 60.7696 32.7178C60.6883 32.7737 60.6315 32.8586 60.6106 32.955C60.5898 33.0515 60.6066 33.1522 60.6575 33.2367L65.1505 40.5926C65.2071 40.6866 65.2255 40.7987 65.2018 40.9058C65.1781 41.013 65.1142 41.1069 65.0232 41.1682C64.9338 41.2326 64.8227 41.259 64.7139 41.2419C64.6052 41.2247 64.5076 41.1653 64.4424 41.0765L59.2057 34.23C59.1476 34.1449 59.0581 34.0864 58.9568 34.0673C58.8555 34.0482 58.7508 34.0701 58.6657 34.1282C58.5806 34.1863 58.5221 34.2758 58.5029 34.3771C58.4838 34.4783 58.5057 34.583 58.5638 34.6681L63.0568 42.024C63.1152 42.1171 63.1351 42.2292 63.1123 42.3366C63.0895 42.4441 63.0257 42.5384 62.9346 42.5997C62.8452 42.664 62.7341 42.6905 62.6254 42.6733C62.5166 42.6561 62.419 42.5967 62.3539 42.508L57.1171 35.6615C57.059 35.5764 56.9695 35.5178 56.8682 35.4987C56.767 35.4796 56.6622 35.5015 56.5771 35.5596C56.492 35.6177 56.4335 35.7072 56.4144 35.8085C56.3953 35.9098 56.4172 36.0145 56.4753 36.0996L60.9683 43.4555C61.0257 43.5497 61.045 43.6622 61.0223 43.7701C60.9995 43.878 60.9365 43.9732 60.846 44.0362C60.7552 44.0975 60.6444 44.1216 60.5363 44.1036C60.4283 44.0856 60.3313 44.0268 60.2653 43.9394L55.0489 37.0929C54.9882 37.0152 54.9001 36.9635 54.8026 36.9485C54.7051 36.9334 54.6055 36.9562 54.5242 37.0121C54.4429 37.0681 54.3861 37.1529 54.3652 37.2494C54.3444 37.3458 54.3612 37.4465 54.4121 37.531L58.9051 44.8869C58.9626 44.9811 58.9819 45.0936 58.9591 45.2015C58.9364 45.3095 58.8734 45.4046 58.7829 45.4677C58.6921 45.5289 58.5813 45.553 58.4732 45.535C58.3652 45.517 58.2682 45.4583 58.2022 45.3709L52.9348 38.5295C52.8762 38.4539 52.7913 38.403 52.697 38.387C52.6027 38.371 52.5058 38.3909 52.4254 38.4429C52.3466 38.4986 52.2915 38.5817 52.2707 38.6759C52.25 38.7701 52.2652 38.8687 52.3134 38.9523L56.8064 46.3082C56.8623 46.4019 56.8807 46.5132 56.8581 46.62C56.8354 46.7267 56.7733 46.8209 56.6841 46.8838C56.5925 46.9454 56.4809 46.9697 56.372 46.9517C56.2631 46.9337 56.1652 46.8748 56.0983 46.787L50.8615 39.9456C50.8008 39.8679 50.7127 39.8162 50.6152 39.8012C50.5177 39.7862 50.4181 39.8089 50.3369 39.8649C50.2556 39.9208 50.1987 40.0056 50.1779 40.1021C50.1571 40.1985 50.1738 40.2993 50.2248 40.3837L54.7178 47.7396C54.7748 47.8336 54.7936 47.9458 54.7701 48.0532C54.7466 48.1605 54.6828 48.2547 54.5918 48.3163C54.5007 48.3778 54.3895 48.402 54.2812 48.3838C54.1728 48.3656 54.0756 48.3064 54.0097 48.2185L49.2161 41.9578L49.0378 42.6965L49.2875 43.0174C50.2216 44.2062 50.9138 45.5665 51.3251 47.0214L52.6343 49.1711C52.6927 49.2641 52.7126 49.3762 52.6897 49.4837C52.6669 49.5911 52.6032 49.6854 52.512 49.7467C52.4218 49.8085 52.3114 49.8335 52.2034 49.8164C52.0954 49.7994 51.9981 49.7416 51.9313 49.655L51.7479 49.4156C52.0026 51.2699 52.2454 53.0698 52.4764 54.8154C52.6598 54.8154 52.8482 54.8154 53.0316 54.8154C63.7293 55.2076 87.4322 38.5753 88.3746 32.9107C89.2049 27.7758 81.4975 21.0363 80.0661 19.8341Z" fill="#6D5AE7"/>
<path d="M36.552 55.442C30.6785 58.7328 25.2838 62.5279 23.1341 64.4535C22.3042 65.2008 21.7184 66.1806 21.453 67.2654C20.587 70.8313 22.1305 72.9963 24.0969 74.3258C24.7004 74.7297 25.3776 75.0105 26.0897 75.1522C26.8019 75.2939 27.535 75.2938 28.2472 75.1519C28.9593 75.0099 29.6364 74.7289 30.2398 74.325C30.8432 73.921 31.361 73.402 31.7635 72.7976C32.5888 71.5597 33.6178 70.0875 34.7945 68.5287C35.309 64.3669 35.9152 59.9604 36.552 55.442ZM28.1722 70.6632C27.8865 70.8601 27.5488 70.9678 27.2018 70.9726C26.8549 70.9774 26.5143 70.8791 26.2233 70.6901C25.9323 70.5012 25.7039 70.2301 25.5672 69.9112C25.4304 69.5923 25.3913 69.24 25.455 68.899C25.5186 68.5579 25.6821 68.2433 25.9246 67.9953C26.1672 67.7472 26.478 67.5767 26.8175 67.5054C27.1571 67.4341 27.5102 67.4652 27.8321 67.5948C28.1539 67.7244 28.4301 67.9466 28.6255 68.2333C28.7554 68.4226 28.8467 68.6356 28.8942 68.8602C28.9417 69.0848 28.9444 69.3165 28.9023 69.5422C28.8602 69.7678 28.7741 69.983 28.6488 70.1753C28.5235 70.3677 28.3615 70.5334 28.1722 70.6632Z" fill="#6D5AE7"/>
<path d="M59.1241 9.36059C57.3068 8.79963 55.3506 8.89181 53.5942 9.62117C51.8378 10.3505 50.3917 11.6712 49.5064 13.3544L46.6995 12.845C46.538 12.8174 46.3718 12.8451 46.228 12.9236C46.0841 13.0021 45.9709 13.1269 45.9067 13.2777C45.8425 13.4285 45.8311 13.5965 45.8742 13.7546C45.9173 13.9127 46.0124 14.0517 46.1443 14.1491C46.7963 14.6177 48.0087 15.4786 48.6913 15.8861C48.3886 17.896 48.8477 19.9464 49.9786 21.6352C51.1095 23.324 52.8306 24.5294 54.8043 25.0148L46.7097 39.2783L43.2202 41.642C41.9329 42.513 40.8583 43.6627 40.0761 45.0058C39.2939 46.3489 38.8241 47.8509 38.7018 49.4003C35.9408 68.8242 33.1696 88.2633 35.1359 94.9927L48.3806 40.1036L56.577 25.244C58.5101 25.2373 60.3778 24.5436 61.8467 23.2871C63.3156 22.0305 64.2901 20.2927 64.5962 18.384C64.9023 16.4754 64.52 14.52 63.5176 12.8672C62.5153 11.2143 60.9581 9.97145 59.1241 9.36059ZM63.0058 18.6624C62.7051 19.9124 62.0405 21.0452 61.096 21.9174C60.1515 22.7897 58.9696 23.3622 57.6997 23.5627C56.4298 23.7633 55.129 23.5827 53.9617 23.0438C52.7944 22.505 51.8131 21.6321 51.142 20.5356C50.4708 19.4391 50.1399 18.1681 50.191 16.8835C50.2422 15.5989 50.6732 14.3583 51.4294 13.3186C52.1857 12.2789 53.2333 11.4869 54.4397 11.0426C55.6461 10.5983 56.9572 10.5217 58.2071 10.8226C59.883 11.226 61.3301 12.2786 62.23 13.7488C63.1299 15.219 63.4089 16.9865 63.0058 18.6624Z" fill="#2E2E2E"/>
<path d="M127.15 64.0384C124.691 64.0384 122.424 63.6532 120.35 62.8827C118.305 62.0826 116.512 60.9566 114.971 59.5045C113.46 58.0525 112.275 56.3486 111.415 54.3928C110.585 52.437 110.171 50.2886 110.171 47.9475C110.171 45.6065 110.585 43.4581 111.415 41.5023C112.275 39.5465 113.475 37.8426 115.016 36.3905C116.557 34.9385 118.364 33.8272 120.439 33.0568C122.513 32.2567 124.795 31.8566 127.284 31.8566C130.04 31.8566 132.514 32.316 134.707 33.2346C136.929 34.1532 138.796 35.4867 140.308 37.2351L135.685 41.5023C134.559 40.317 133.329 39.4428 131.996 38.8797C130.662 38.2871 129.21 37.9907 127.639 37.9907C126.128 37.9907 124.75 38.2278 123.506 38.7019C122.261 39.1761 121.179 39.8576 120.261 40.7466C119.372 41.6356 118.675 42.6876 118.172 43.9026C117.697 45.1176 117.46 46.4659 117.46 47.9475C117.46 49.3996 117.697 50.7331 118.172 51.948C118.675 53.163 119.372 54.2298 120.261 55.1484C121.179 56.0374 122.246 56.719 123.461 57.1931C124.706 57.6673 126.069 57.9043 127.551 57.9043C128.973 57.9043 130.351 57.6821 131.684 57.2376C133.047 56.7635 134.366 55.9782 135.64 54.8817L139.73 60.0824C138.041 61.3566 136.07 62.3345 133.818 63.0161C131.595 63.6977 129.373 64.0384 127.15 64.0384ZM133.151 59.1489V47.4586H139.73V60.0824L133.151 59.1489ZM145.93 63.505V39.5909H152.553V46.3473L151.619 44.3915C152.331 42.7024 153.472 41.4282 155.042 40.5688C156.613 39.6798 158.524 39.2353 160.776 39.2353V45.6361C160.48 45.6065 160.213 45.5917 159.976 45.5917C159.739 45.5621 159.487 45.5472 159.22 45.5472C157.324 45.5472 155.783 46.0955 154.598 47.1919C153.442 48.2587 152.864 49.933 152.864 52.2147V63.505H145.93ZM176.061 63.8606C173.513 63.8606 171.246 63.3272 169.261 62.2604C167.305 61.1936 165.749 59.7416 164.593 57.9043C163.467 56.0374 162.904 53.9187 162.904 51.548C162.904 49.1477 163.467 47.0289 164.593 45.1916C165.749 43.3247 167.305 41.8727 169.261 40.8355C171.246 39.7687 173.513 39.2353 176.061 39.2353C178.58 39.2353 180.832 39.7687 182.818 40.8355C184.803 41.8727 186.359 43.3099 187.485 45.1472C188.611 46.9845 189.174 49.1181 189.174 51.548C189.174 53.9187 188.611 56.0374 187.485 57.9043C186.359 59.7416 184.803 61.1936 182.818 62.2604C180.832 63.3272 178.58 63.8606 176.061 63.8606ZM176.061 58.171C177.217 58.171 178.254 57.9043 179.173 57.3709C180.092 56.8375 180.818 56.0819 181.351 55.104C181.884 54.0965 182.151 52.9111 182.151 51.548C182.151 50.1552 181.884 48.9699 181.351 47.992C180.818 47.0141 180.092 46.2584 179.173 45.725C178.254 45.1916 177.217 44.9249 176.061 44.9249C174.906 44.9249 173.869 45.1916 172.95 45.725C172.031 46.2584 171.29 47.0141 170.727 47.992C170.194 48.9699 169.927 50.1552 169.927 51.548C169.927 52.9111 170.194 54.0965 170.727 55.104C171.29 56.0819 172.031 56.8375 172.95 57.3709C173.869 57.9043 174.906 58.171 176.061 58.171ZM205.188 63.8606C202.64 63.8606 200.373 63.3272 198.387 62.2604C196.432 61.1936 194.876 59.7416 193.72 57.9043C192.594 56.0374 192.031 53.9187 192.031 51.548C192.031 49.1477 192.594 47.0289 193.72 45.1916C194.876 43.3247 196.432 41.8727 198.387 40.8355C200.373 39.7687 202.64 39.2353 205.188 39.2353C207.707 39.2353 209.959 39.7687 211.945 40.8355C213.93 41.8727 215.486 43.3099 216.612 45.1472C217.738 46.9845 218.301 49.1181 218.301 51.548C218.301 53.9187 217.738 56.0374 216.612 57.9043C215.486 59.7416 213.93 61.1936 211.945 62.2604C209.959 63.3272 207.707 63.8606 205.188 63.8606ZM205.188 58.171C206.344 58.171 207.381 57.9043 208.3 57.3709C209.218 56.8375 209.944 56.0819 210.478 55.104C211.011 54.0965 211.278 52.9111 211.278 51.548C211.278 50.1552 211.011 48.9699 210.478 47.992C209.944 47.0141 209.218 46.2584 208.3 45.725C207.381 45.1916 206.344 44.9249 205.188 44.9249C204.033 44.9249 202.995 45.1916 202.077 45.725C201.158 46.2584 200.417 47.0141 199.854 47.992C199.321 48.9699 199.054 50.1552 199.054 51.548C199.054 52.9111 199.321 54.0965 199.854 55.104C200.417 56.0819 201.158 56.8375 202.077 57.3709C202.995 57.9043 204.033 58.171 205.188 58.171ZM253.562 39.2353C255.459 39.2353 257.133 39.6206 258.585 40.391C260.067 41.1319 261.222 42.2876 262.052 43.8581C262.911 45.3991 263.341 47.3845 263.341 49.8144V63.505H256.407V50.8812C256.407 48.9551 256.007 47.5327 255.207 46.614C254.407 45.6954 253.281 45.2361 251.829 45.2361C250.821 45.2361 249.917 45.4732 249.117 45.9473C248.317 46.3918 247.695 47.0734 247.25 47.992C246.806 48.9106 246.583 50.0811 246.583 51.5035V63.505H239.649V50.8812C239.649 48.9551 239.249 47.5327 238.449 46.614C237.679 45.6954 236.567 45.2361 235.115 45.2361C234.108 45.2361 233.204 45.4732 232.404 45.9473C231.604 46.3918 230.982 47.0734 230.537 47.992C230.092 48.9106 229.87 50.0811 229.87 51.5035V63.505H222.936V39.5909H229.559V46.1251L228.314 44.2137C229.144 42.5839 230.315 41.3541 231.826 40.5244C233.367 39.665 235.115 39.2353 237.071 39.2353C239.264 39.2353 241.175 39.7984 242.805 40.9244C244.465 42.0209 245.561 43.71 246.095 45.9917L243.65 45.325C244.45 43.4581 245.724 41.9764 247.472 40.88C249.25 39.7836 251.28 39.2353 253.562 39.2353Z" fill="#6D5AE7"/>
</svg>
